# File created by Blade
# Date/Time:  Thu Sep 25 21:01:51 2014
# Frame Rate: 120.000 fps
#------------------------------------------------------
:FULLY-SPECIFIED
:DEGREES
2268
root 4.158223 6.174843 -6.398960 36.711986 7.484835 -29.353935
Spine -18.642152 5.318015 43.568491
Head -13.990413 -7.271866 10.753725
LeftShoulder -4.858272 16.585648 17.238038
LeftArm 37.627163 26.519834 -35.081168
LeftForeArm 18.846994 -0.000000 51.510149
LeftHand -20.285490 -0.000000 -3.956427
LeftHandThumb1 -26.253704 0.000000 33.147579
RightShoulder -28.765100 8.571442 -27.858033
RightArm -72.905969 57.996267 15.297218
RightForeArm 51.193255 -0.000000 109.277147
RightHand -2.063833 -0.000000 15.510311
RightHandThumb1 -24.326973 -0.000000 -32.862282
LeftUpLeg -111.509092 -22.264469 -41.069766
LeftLeg 134.579120 -0.000000 -0.000000
LeftFoot 42.341819 8.863922 -22.516577
LeftToeBase 8.907491 -0.000000 -0.000000
RightUpLeg -24.136657 44.505270 -60.680819
RightLeg 134.331051 -0.000000 -0.000000
RightFoot 40.212117 3.021569 -10.379982
RightToeBase 24.551683 -0.000000 -0.000000
2269
root 4.163871 6.174204 -6.402236 36.688723 7.415211 -29.349023
Spine -18.627929 5.296308 43.617660
Head -14.007831 -6.733491 10.709941
LeftShoulder -4.780556 16.453701 17.278353
LeftArm 37.694502 26.140164 -35.174645
LeftForeArm 18.928003 0.000000 51.221391
LeftHand -20.384622 -0.000000 -4.073001
LeftHandThumb1 -26.253704 0.000000 33.147579
RightShoulder -28.766244 8.596243 -27.864003
RightArm -72.760625 57.884954 15.465731
RightForeArm 51.220801 -0.000000 109.437676
RightHand -1.977807 -0.000000 15.531720
RightHandThumb1 -24.326973 -0.000000 -32.862282
LeftUpLeg -111.498118 -22.213623 -41.106966
LeftLeg 134.552512 -0.000000 -0.000000
LeftFoot 42.364713 8.819106 -22.488219
LeftToeBase 8.969580 -0.000000 -0.000000
RightUpLeg -24.181800 44.523073 -60.760588
RightLeg 134.400084 -0.000000 -0.000000
RightFoot 40.195020 3.080737 -10.493405
RightToeBase 24.459939 -0.000000 -0.000000
2270
root 4.170719 6.171497 -6.406320 36.664736 7.369256 -29.331472
Spine -18.619610 5.241018 43.673967
Head -14.048153 -6.179097 10.664241
LeftShoulder -4.756874 16.384966 17.302232
LeftArm 37.884686 25.744687 -35.231069
LeftForeArm 18.894984 0.000000 50.889483
LeftHand -20.288183 0.000000 -3.974753
LeftHandThumb1 -26.253704 0.000000 33.147579
RightShoulder -28.777050 8.590726 -27.890648
RightArm -72.529665 57.837748 15.742027
RightForeArm 51.196925 -0.000000 109.575084
RightHand -1.906234 -0.000000 15.529628
RightHandThumb1 -24.326973 -0.000000 -32.862282
LeftUpLeg -111.468245 -22.196008 -41.151601
LeftLeg 134.525354 -0.000000 -0.000000
LeftFoot 42.369881 8.848273 -22.522264
LeftToeBase 8.929839 -0.000000 -0.000000
RightUpLeg -24.193663 44.534805 -60.827491
RightLeg 134.430889 -0.000000 -0.000000
RightFoot 40.174679 3.048903 -10.479186
RightToeBase 24.542665 -0.000000 -0.000000
2271
root 4.172911 6.172022 -6.408468 36.618294 7.265497 -29.366153
Spine -18.546775 5.234009 43.718448
Head -14.085316 -5.612120 10.621176
LeftShoulder -4.722889 16.327131 17.307860
LeftArm 38.045239 25.382805 -35.208874
LeftForeArm 18.912962 -0.000000 50.654735
LeftHand -20.336991 -0.000000 -3.788343
LeftHandThumb1 -26.253704 0.000000 33.147579
RightShoulder -28.789421 8.584732 -27.856618
RightArm -72.302563 57.799948 15.987140
RightForeArm 51.128504 -0.000000 109.728437
RightHand -1.856569 -0.000000 15.489244
RightHandThumb1 -24.326973 -0.000000 -32.862282
LeftUpLeg -111.486904 -22.094009 -41.179178
LeftLeg 134.526152 -0.000000 -0.000000
LeftFoot 42.347832 8.821113 -22.452889
LeftToeBase 9.015946 -0.000000 -0.000000
RightUpLeg -24.315009 44.596962 -60.945450
RightLeg 134.514992 -0.000000 -0.000000
RightFoot 40.090330 3.134523 -10.619995
RightToeBase 24.387534 -0.000000 -0.000000
2272
root 4.175475 6.172240 -6.409992 36.590417 7.205781 -29.383742
Spine -18.524708 5.187774 43.777067
Head -14.131130 -5.042636 10.572238
LeftShoulder -4.740992 16.281769 17.293901
LeftArm 38.273886 25.067219 -35.152823
LeftForeArm 18.840542 0.000000 50.432237
LeftHand -20.337196 -0.000000 -3.671050
LeftHandThumb1 -26.253704 0.000000 33.147579
RightShoulder -28.767899 8.586438 -27.843975
RightArm -72.134267 57.753099 16.186396
RightForeArm 51.060845 0.000000 109.865900
RightHand -1.829414 -0.000000 15.469848
RightHandThumb1 -24.326973 -0.000000 -32.862282
LeftUpLeg -111.493361 -22.042037 -41.196810
LeftLeg 134.523304 -0.000000 -0.000000
LeftFoot 42.346492 8.785069 -22.392329
LeftToeBase 8.955710 -0.000000 -0.000000
RightUpLeg -24.380603 44.625685 -61.013209
RightLeg 134.550644 -0.000000 -0.000000
RightFoot 40.082789 3.134873 -10.639628
RightToeBase 24.392928 -0.000000 -0.000000
2273
root 4.177657 6.172801 -6.411879 36.579789 7.155634 -29.391470
Spine -18.529196 5.141582 43.803857
Head -14.159153 -4.437556 10.580334
LeftShoulder -4.759718 16.238336 17.306482
LeftArm 38.492331 24.782421 -35.123204
LeftForeArm 18.811469 -0.000000 50.279633
LeftHand -20.466826 -0.000000 -3.555089
LeftHandThumb1 -26.253704 0.000000 33.147579
RightShoulder -28.726401 8.605449 -27.818451
RightArm -72.030690 57.679986 16.302003
RightForeArm 50.912962 -0.000000 109.970272
RightHand -1.797522 -0.000000 15.506139
RightHandThumb1 -24.326973 -0.000000 -32.862282
LeftUpLeg -111.489604 -22.002445 -41.220643
LeftLeg 134.511299 -0.000000 -0.000000
LeftFoot 42.330991 8.811719 -22.424629
LeftToeBase 8.995008 -0.000000 -0.000000
RightUpLeg -24.446697 44.645931 -61.089604
RightLeg 134.568744 -0.000000 -0.000000
RightFoot 40.068648 3.154945 -10.626293
RightToeBase 24.013653 -0.000000 -0.000000
2274
root 4.181614 6.172035 -6.413727 36.577706 7.148209 -29.371979
Spine -18.583145 5.120884 43.827753
Head -14.178743 -3.924704 10.532514
LeftShoulder -4.699662 16.109680 17.338153
LeftArm 38.646041 24.572502 -35.136825
LeftForeArm 18.728544 -0.000000 50.124239
LeftHand -20.478454 -0.000000 -3.448835
LeftHandThumb1 -26.253704 0.000000 33.147579
RightShoulder -28.723821 8.598985 -27.859627
RightArm -72.005117 57.632240 16.364469
RightForeArm 50.722633 0.000000 110.092309
RightHand -1.854976 -0.000000 15.522438
RightHandThumb1 -24.326973 -0.000000 -32.862282
LeftUpLeg -111.466377 -22.012214 -41.243735
LeftLeg 134.488606 -0.000000 -0.000000
LeftFoot 42.341104 8.822980 -22.415463
LeftToeBase 9.027048 -0.000000 -0.000000
RightUpLeg -24.432356 44.630149 -61.105823
RightLeg 134.583813 -0.000000 -0.000000
RightFoot 40.048347 3.235800 -10.744005
RightToeBase 24.116446 -0.000000 -0.000000
2275
root 4.184880 6.171656 -6.415455 36.558948 7.122140 -29.367406
Spine -18.603478 5.100477 43.834255
Head -14.212140 -3.369736 10.513652
LeftShoulder -4.657904 16.047654 17.355988
LeftArm 38.811331 24.296714 -35.162938
LeftForeArm 18.598643 0.000000 50.159709
LeftHand -20.607786 0.000000 -3.542211
LeftHandThumb1 -26.253704 0.000000 33.147579
RightShoulder -28.720998 8.596594 -27.872638
RightArm -71.977021 57.617724 16.405831
RightForeArm 50.486788 -0.000000 110.208390
RightHand -1.907902 -0.000000 15.576704
RightHandThumb1 -24.326973 -0.000000 -32.862282
LeftUpLeg -111.459764 -21.962916 -41.209961
LeftLeg 134.477390 -0.000000 -0.000000
LeftFoot 42.361627 8.579873 -22.362166
LeftToeBase 9.075813 -0.000000 -0.000000
RightUpLeg -24.460055 44.647023 -61.155356
RightLeg 134.593979 -0.000000 -0.000000
RightFoot 40.060902 3.300519 -10.830927
RightToeBase 24.229140 -0.000000 -0.000000
2276
root 4.185393 6.171723 -6.415643 36.531323 7.101558 -29.379876
Spine -18.612355 5.079247 43.854956
Head -14.253267 -2.854830 10.480287
LeftShoulder -4.631421 15.962927 17.366726
LeftArm 38.975802 24.069097 -35.188577
LeftForeArm 18.542939 0.000000 50.170223
LeftHand -20.774770 -0.000000 -3.608350
LeftHandThumb1 -26.253704 0.000000 33.147579
RightShoulder -28.725068 8.605425 -27.892982
RightArm -71.954683 57.609705 16.446626
RightForeArm 50.154962 0.000000 110.362975
RightHand -1.945833 0.000000 15.533682
RightHandThumb1 -24.326973 -0.000000 -32.862282
LeftUpLeg -111.426333 -21.960838 -41.293823
LeftLeg 134.435239 -0.000000 -0.000000
LeftFoot 42.496400 8.975204 -22.424347
LeftToeBase 8.738187 -0.000000 -0.000000
RightUpLeg -24.479099 44.682793 -61.177385
RightLeg 134.614848 -0.000000 -0.000000
RightFoot 40.063582 3.411506 -10.990107
RightToeBase 24.296288 -0.000000 -0.000000
2277
root 4.185845 6.171081 -6.415899 36.508085 7.097676 -29.381381
Spine -18.648376 5.059064 43.859618
Head -14.281511 -2.340940 10.440668
LeftShoulder -4.574655 15.890265 17.391263
LeftArm 39.095555 23.859742 -35.226340
LeftForeArm 18.573227 -0.000000 50.300866
LeftHand -21.011040 -0.000000 -3.629343
LeftHandThumb1 -26.253704 0.000000 33.147579
RightShoulder -28.741055 8.604282 -27.920373
RightArm -71.928395 57.616006 16.484862
RightForeArm 49.819925 0.000000 110.517815
RightHand -1.818912 -0.000000 15.533277
RightHandThumb1 -24.326973 -0.000000 -32.862282
LeftUpLeg -111.404508 -21.944052 -41.297474
LeftLeg 134.468939 -0.000000 -0.000000
LeftFoot 42.356426 8.860845 -22.377161
LeftToeBase 8.978814 -0.000000 -0.000000
RightUpLeg -24.463485 44.694887 -61.175804
RightLeg 134.628938 -0.000000 -0.000000
RightFoot 40.065256 3.454358 -11.214994
RightToeBase 24.505015 -0.000000 -0.000000
2278
root 4.185698 6.170875 -6.415468 36.484515 7.096651 -29.381967
Spine -18.691214 5.038467 43.856579
Head -14.304137 -1.896449 10.399597
LeftShoulder -4.523967 15.838650 17.403790
LeftArm 39.232685 23.634779 -35.279960
LeftForeArm 18.617615 0.000000 50.415214
LeftHand -21.084464 -0.000000 -3.677765
LeftHandThumb1 -26.253704 0.000000 33.147579
RightShoulder -28.745287 8.603737 -27.929776
RightArm -71.898675 57.630201 16.522946
RightForeArm 49.494010 -0.000000 110.677951
RightHand -1.752095 -0.000000 15.482434
RightHandThumb1 -24.326973 -0.000000 -32.862282
LeftUpLeg -111.388376 -21.925376 -41.291411
LeftLeg 134.473786 -0.000000 -0.000000
LeftFoot 42.344113 8.785061 -22.340992
LeftToeBase 9.101404 -0.000000 -0.000000
RightUpLeg -24.452124 44.736786 -61.182085
RightLeg 134.639480 -0.000000 -0.000000
RightFoot 40.045322 3.462120 -11.221172
RightToeBase 24.247997 -0.000000 -0.000000
2279
root 4.185253 6.171019 -6.415066 36.462806 7.096525 -29.389353
Spine -18.729004 5.028347 43.849819
Head -14.350436 -1.449252 10.353252
LeftShoulder -4.492734 15.821198 17.420028
LeftArm 39.404389 23.421470 -35.310782
LeftForeArm 18.735754 0.000000 50.556891
LeftHand -21.123402 0.000000 -3.662437
LeftHandThumb1 -26.253704 0.000000 33.147579
RightShoulder -28.748683 8.629018 -27.938048
RightArm -71.908184 57.642424 16.511963
RightForeArm 49.195674 -0.000000 110.831669
RightHand -1.722741 -0.000000 15.496939
RightHandThumb1 -24.326973 -0.000000 -32.862282
LeftUpLeg -111.376091 -21.912098 -41.294925
LeftLeg 134.475778 -0.000000 -0.000000
LeftFoot 42.352046 8.737448 -22.255554
LeftToeBase 9.093989 -0.000000 -0.000000
RightUpLeg -24.454988 44.782353 -61.190857
RightLeg 134.654845 -0.000000 -0.000000
RightFoot 40.047348 3.468743 -11.311286
RightToeBase 24.104904 -0.000000 -0.000000
